<?xml version="1.0" encoding="utf-8"?>
<!-- Generator: Adobe Illustrator 16.0.0, SVG Export Plug-In . SVG Version: 6.00 Build 0)  -->
<!DOCTYPE svg PUBLIC "-//W3C//DTD SVG 1.1//EN" "http://www.w3.org/Graphics/SVG/1.1/DTD/svg11.dtd">
<svg version="1.1" id="Capa_1" xmlns="http://www.w3.org/2000/svg" xmlns:xlink="http://www.w3.org/1999/xlink" x="0px" y="0px"
	 width="295px" height="168.711px" viewBox="0 0 295 168.711" enable-background="new 0 0 295 168.711" xml:space="preserve">
<g>
	<path fill="#FFFFFF" d="M152.441,9.062v11.753h20.143v9.062h-20.143V53.38h-10.406V0h31.541v9.062H152.441z"/>
	<path fill="#FFFFFF" d="M213.909,9.062v11.753h16.566v9.062h-16.566v14.441h17.2v9.062h-27.61V0h27.61v9.062H213.909z"/>
	<path fill="#FFFFFF" d="M273.404,44.318H295v9.062h-32.002V0h10.406V44.318z"/>
	<path fill="#FFFFFF" d="M213.909,89.586v11.752h16.566v9.062h-16.566v14.443h17.2v9.061h-27.61V80.524h27.61v9.062H213.909z"/>
	<path fill="#FFFFFF" d="M284.165,133.905h-10.406V89.586h-10.761v-9.062h31.93v9.062h-10.763V133.905z"/>
	<rect x="143.127" y="159.247" fill="#FFFFFF" width="151.801" height="9.465"/>
	<path fill="#FFFFFF" d="M64.817,76.506c4.453-9.615,12.479-17.54,23.002-21.378c21.047-7.678,44.152,3.655,51.611,25.32
		l12.851,35.969h0.141l11.895-35.966h11.187l-20.747,54.796h-6.088l-19.051-51.212c-5.537-16.086-22.693-24.504-38.32-18.803
		c-7.603,2.773-13.438,8.352-16.792,15.229c-8.876,21.125-32.932,31.494-53.743,23.197c-8.937-3.564-15.829-10.053-20.071-17.904
		c-1.447-2.568-0.549-5.883,2.02-7.33c2.569-1.448,5.795-0.565,7.243,2.003c3.143,5.899,8.254,10.708,14.945,13.376
		C40.349,99.967,58.227,92.19,64.817,76.506z"/>
</g>
</svg>
