<?xml version="1.0" encoding="utf-8"?>
<!-- Generator: Adobe Illustrator 16.0.0, SVG Export Plug-In . SVG Version: 6.00 Build 0)  -->
<!DOCTYPE svg PUBLIC "-//W3C//DTD SVG 1.1//EN" "http://www.w3.org/Graphics/SVG/1.1/DTD/svg11.dtd">
<svg version="1.1" id="Capa_1" xmlns="http://www.w3.org/2000/svg" xmlns:xlink="http://www.w3.org/1999/xlink" x="0px" y="0px"
	 width="35px" height="21px" viewBox="0 0 35 21" enable-background="new 0 0 35 21" xml:space="preserve">
<path fill="#AB437F" d="M15.388,19.903V21h-0.24c-4.833,0-8.566-1.075-11.199-3.225C1.316,15.627,0,12.59,0,8.666
	c0-2.663,0.72-4.772,2.161-6.33C3.601,0.779,5.538,0,7.971,0c2.32,0,4.192,0.653,5.617,1.963c1.424,1.307,2.136,3.028,2.136,5.161
	c0,1.837-0.624,3.407-1.872,4.708c-1.248,1.299-2.752,1.95-4.513,1.95c-0.496,0-1.141-0.097-1.933-0.292
	c-0.792-0.195-1.307-0.293-1.548-0.293c-0.497,0-0.852,0.112-1.069,0.34c-0.215,0.225-0.324,0.595-0.324,1.108
	c0,1.558,0.984,2.822,2.954,3.796c1.968,0.975,4.592,1.461,7.874,1.461H15.388z M34.665,19.903V21h-0.241
	c-4.833,0-8.565-1.075-11.198-3.225c-2.633-2.148-3.949-5.186-3.949-9.11c0-2.663,0.721-4.772,2.16-6.33
	C22.878,0.779,24.813,0,27.246,0c2.321,0,4.193,0.653,5.617,1.963C34.288,3.27,35,4.991,35,7.124c0,1.837-0.624,3.407-1.871,4.708
	c-1.249,1.299-2.753,1.95-4.514,1.95c-0.496,0-1.141-0.097-1.934-0.292c-0.791-0.195-1.308-0.293-1.547-0.293
	c-0.496,0-0.853,0.112-1.068,0.34c-0.217,0.225-0.324,0.595-0.324,1.108c0,1.558,0.984,2.822,2.952,3.796
	c1.969,0.975,4.594,1.461,7.874,1.461H34.665z"/>
</svg>
