<?xml version="1.0" encoding="utf-8"?>
<!-- Generator: Adobe Illustrator 16.0.0, SVG Export Plug-In . SVG Version: 6.00 Build 0)  -->
<!DOCTYPE svg PUBLIC "-//W3C//DTD SVG 1.1//EN" "http://www.w3.org/Graphics/SVG/1.1/DTD/svg11.dtd">
<svg version="1.1" id="Capa_1" xmlns="http://www.w3.org/2000/svg" xmlns:xlink="http://www.w3.org/1999/xlink" x="0px" y="0px"
	 width="35px" height="21px" viewBox="0 0 35 21" enable-background="new 0 0 35 21" xml:space="preserve">
<path fill="#AB437F" d="M19.708,19.903c3.281,0,5.906-0.486,7.874-1.461c1.97-0.974,2.954-2.238,2.954-3.796
	c0-0.514-0.109-0.884-0.324-1.108c-0.217-0.228-0.572-0.34-1.069-0.34c-0.241,0-0.756,0.098-1.548,0.293
	c-0.792,0.195-1.437,0.292-1.933,0.292c-1.76,0-3.265-0.651-4.513-1.95c-1.249-1.302-1.872-2.871-1.872-4.708
	c0-2.133,0.711-3.854,2.136-5.161C22.837,0.653,24.709,0,27.029,0c2.433,0,4.37,0.779,5.81,2.336C34.28,3.894,35,6.003,35,8.666
	c0,3.924-1.316,6.961-3.949,9.11C28.418,19.925,24.685,21,19.852,21h-0.24v-1.098H19.708z M0.432,19.903
	c3.28,0,5.905-0.486,7.874-1.461c1.968-0.974,2.952-2.238,2.952-3.796c0-0.514-0.107-0.884-0.324-1.108
	c-0.216-0.228-0.572-0.34-1.068-0.34c-0.239,0-0.756,0.098-1.547,0.293c-0.793,0.195-1.438,0.292-1.934,0.292
	c-1.761,0-3.265-0.651-4.514-1.95C0.624,10.531,0,8.961,0,7.124C0,4.991,0.712,3.27,2.137,1.963C3.561,0.653,5.433,0,7.754,0
	c2.433,0,4.368,0.779,5.81,2.336c1.439,1.557,2.16,3.667,2.16,6.33c0,3.924-1.316,6.961-3.949,9.11C9.142,19.925,5.409,21,0.576,21
	H0.335v-1.098H0.432z"/>
</svg>
