<?xml version="1.0" encoding="utf-8"?>
<!-- Generator: Adobe Illustrator 16.0.0, SVG Export Plug-In . SVG Version: 6.00 Build 0)  -->
<!DOCTYPE svg PUBLIC "-//W3C//DTD SVG 1.1//EN" "http://www.w3.org/Graphics/SVG/1.1/DTD/svg11.dtd">
<svg version="1.1" id="Capa_1" xmlns="http://www.w3.org/2000/svg" xmlns:xlink="http://www.w3.org/1999/xlink" x="0px" y="0px"
	 width="62px" height="62px" viewBox="-0.32 62.68 62 62" enable-background="new -0.32 62.68 62 62" xml:space="preserve">
<g>
	<path fill="#AA437F" d="M30.679,124.68c17.122,0,31-13.88,31-31c0-17.121-13.879-31-31-31c-17.121,0-31,13.879-31,31
		C-0.321,110.8,13.558,124.68,30.679,124.68L30.679,124.68z"/>
	<path fill="#FFFFFF" d="M21.484,79.159v-1.98h-5.165v8.995h2.337v-3.531h2.565v-1.979h-2.565v-1.504H21.484L21.484,79.159z
		 M27.64,84.612l0.584,1.562h2.494l-3.388-8.995h-2.552l-3.46,8.995H23.8l0.62-1.562H27.64L27.64,84.612z M27.008,82.823h-1.943
		l0.965-2.863h0.024L27.008,82.823L27.008,82.823z M37.316,77.679c-0.798-0.452-1.907-0.738-2.815-0.738
		c-1.802,0-3.101,1.192-3.101,3.018c0,1.741,0.965,2.123,2.433,2.543c0.501,0.143,1.421,0.368,1.421,1.024
		c0,0.634-0.586,0.907-1.134,0.907c-0.8,0-1.491-0.417-2.075-0.93l-1.002,1.883c0.918,0.645,2.027,1.026,3.162,1.026
		c0.906,0,1.849-0.25,2.551-0.848c0.717-0.607,0.933-1.526,0.933-2.42c0-1.457-0.967-2.089-2.22-2.46l-0.596-0.179
		c-0.406-0.131-1.039-0.334-1.039-0.857c0-0.501,0.572-0.752,1.004-0.752c0.572,0,1.12,0.238,1.55,0.597L37.316,77.679
		L37.316,77.679z M43.912,79.159v-1.98h-5.115v8.995h5.115v-1.98h-2.779v-1.551h2.638v-1.979h-2.638v-1.504H43.912L43.912,79.159z"
		/>
	<path fill="#FFFFFF" d="M36.023,103.118v-11.58h-6.644l-7.522,12.227v3.231h9.46v4.032h4.705v-4.032h2.352v-3.878H36.023
		L36.023,103.118z M31.318,103.118h-4.601l4.549-7.496h0.052V103.118L31.318,103.118z"/>
</g>
</svg>
