<?xml version="1.0" encoding="utf-8"?>
<!-- Generator: Adobe Illustrator 16.0.0, SVG Export Plug-In . SVG Version: 6.00 Build 0)  -->
<!DOCTYPE svg PUBLIC "-//W3C//DTD SVG 1.1//EN" "http://www.w3.org/Graphics/SVG/1.1/DTD/svg11.dtd">
<svg version="1.1" id="Capa_1" xmlns="http://www.w3.org/2000/svg" xmlns:xlink="http://www.w3.org/1999/xlink" x="0px" y="0px"
	 width="62px" height="62px" viewBox="-0.32 62.68 62 62" enable-background="new -0.32 62.68 62 62" xml:space="preserve">
<g>
	<path fill="#AA437F" d="M30.679,124.68c17.121,0,31-13.879,31-31s-13.879-31-31-31c-17.121,0-31,13.879-31,31
		S13.558,124.68,30.679,124.68L30.679,124.68z"/>
	<path fill="#FFFFFF" d="M21.483,79.159v-1.98H16.32v8.995h2.336v-3.531h2.565v-1.979h-2.565v-1.504H21.483L21.483,79.159z
		 M27.64,84.611l0.584,1.563h2.493l-3.387-8.995h-2.553l-3.459,8.995h2.481l0.62-1.563H27.64L27.64,84.611z M27.008,82.823h-1.944
		l0.966-2.863h0.024L27.008,82.823L27.008,82.823z M37.315,77.679c-0.798-0.452-1.907-0.738-2.814-0.738
		c-1.802,0-3.101,1.192-3.101,3.018c0,1.741,0.965,2.123,2.432,2.541c0.502,0.144,1.422,0.37,1.422,1.026
		c0,0.633-0.586,0.907-1.136,0.907c-0.799,0-1.49-0.417-2.074-0.93l-1.002,1.883c0.918,0.645,2.027,1.025,3.16,1.025
		c0.907,0,1.851-0.25,2.553-0.847c0.716-0.607,0.931-1.526,0.931-2.42c0-1.458-0.965-2.089-2.218-2.46l-0.597-0.179
		c-0.405-0.131-1.039-0.334-1.039-0.857c0-0.502,0.573-0.753,1.003-0.753c0.573,0,1.122,0.239,1.552,0.598L37.315,77.679
		L37.315,77.679z M43.912,79.159v-1.98h-5.116v8.995h5.116v-1.98h-2.779v-1.551h2.637v-1.979h-2.637v-1.504H43.912L43.912,79.159z"
		/>
	<path fill="#FFFFFF" d="M28.023,97.148c-0.026-1.267,0.775-2.249,2.068-2.249c1.137,0,1.991,0.775,1.991,1.965
		c0,1.345-0.931,2.145-2.224,2.145h-0.517v3.387c0.285-0.078,0.569-0.155,0.879-0.155c1.421,0,2.688,1.138,2.688,2.611
		c0,1.577-1.163,2.61-2.714,2.61c-1.603,0-2.714-1.214-2.714-2.766h-5.169c-0.052,1.706,1.06,3.723,2.223,4.912
		c1.577,1.602,3.593,2.195,5.816,2.195c3.877,0,7.574-2.195,7.574-6.461c0-1.99-1.111-4.369-3.18-4.912
		c1.423-0.801,2.042-2.455,2.042-4.007c0-3.645-2.74-5.66-6.229-5.66c-1.99,0-3.723,0.569-4.963,1.68
		c-1.241,1.112-2.068,2.662-2.275,4.705H28.023L28.023,97.148z"/>
</g>
</svg>
