<?xml version="1.0" standalone="no"?>
<!DOCTYPE svg PUBLIC "-//W3C//DTD SVG 20010904//EN"
 "http://www.w3.org/TR/2001/REC-SVG-20010904/DTD/svg10.dtd">
<svg version="1.0" xmlns="http://www.w3.org/2000/svg"
 width="700.000000pt" height="700.000000pt" viewBox="0 0 700.000000 700.000000"
 preserveAspectRatio="xMidYMid meet">
<metadata>
Created by potrace 1.11, written by Peter Selinger 2001-2013
</metadata>
<g transform="translate(0.000000,700.000000) scale(0.100000,-0.100000)"
fill="#000000" stroke="none">
<path d="M1321 6072 c-8 -3 -11 -218 -11 -818 l0 -814 160 0 160 0 0 360 0
360 310 0 310 0 0 139 0 140 -262 0 c-145 0 -284 0 -310 1 l-48 0 0 179 0 180
298 0 c163 0 309 0 325 0 l27 1 0 138 0 138 -474 0 c-260 0 -478 -2 -485 -4z"/>
<path d="M3202 6065 c-4 -5 -7 -373 -7 -817 l0 -808 422 0 c233 0 423 3 424 8
0 11 0 172 0 224 l-1 47 -227 0 c-126 0 -244 0 -263 1 l-36 0 1 220 0 220 252
0 c139 0 253 3 254 8 1 9 1 198 0 239 l-1 32 -207 0 c-115 0 -228 0 -254 0
l-45 1 0 178 1 177 258 2 c142 1 261 4 264 6 4 5 6 113 4 238 l-1 35 -416 0
c-279 0 -417 -3 -422 -11z"/>
<path d="M5020 5258 l0 -818 490 0 490 0 0 139 0 139 -317 1 c-175 0 -324 0
-330 1 -10 0 -13 146 -15 678 l-3 677 -157 1 -158 0 0 -818z"/>
<path d="M0 4296 l0 -166 83 -1 c45 0 93 -3 106 -5 192 -35 321 -94 456 -208
77 -65 73 -61 127 -128 86 -106 109 -154 244 -513 10 -27 19 -52 20 -55 0 -3
4 -12 7 -20 6 -13 207 -555 401 -1078 l71 -192 94 2 93 3 44 115 c24 63 57
149 73 190 16 41 90 239 166 440 75 201 141 374 146 385 5 11 53 138 108 283
l98 262 -171 0 -172 0 -177 -537 c-98 -296 -181 -543 -185 -550 -5 -7 -15 8
-26 40 -9 29 -39 113 -66 187 -26 74 -83 232 -125 350 -180 505 -215 601 -248
665 -206 413 -599 671 -1054 692 l-113 6 0 -167z"/>
<path d="M3198 3603 c-3 -5 -4 -372 -4 -818 l1 -810 423 -2 422 -3 1 28 c1 27
0 145 0 214 l-1 38 -262 2 -263 3 0 218 0 217 25 1 c14 0 127 0 253 0 l227 0
1 32 c1 43 1 219 0 234 -1 10 -62 13 -253 15 l-253 3 0 178 -1 177 263 0 c203
0 263 3 264 13 0 6 0 68 0 137 l1 125 -421 3 c-231 1 -421 -1 -423 -5z"/>
<path d="M5020 3470 l0 -140 165 0 165 0 0 -680 0 -680 160 1 160 1 0 467 c0
256 0 562 0 679 l0 212 164 0 164 0 0 140 0 140 -489 0 -489 0 0 -140z"/>
<path d="M1349 1196 c-4 -3 -3 -279 1 -284 3 -4 1050 -7 2327 -7 l2322 0 -2
145 -2 145 -2322 1 c-1278 0 -2323 0 -2324 0z"/>
</g>
</svg>
