<?xml version="1.0" encoding="utf-8"?>
<!-- Generator: Adobe Illustrator 16.0.0, SVG Export Plug-In . SVG Version: 6.00 Build 0)  -->
<!DOCTYPE svg PUBLIC "-//W3C//DTD SVG 1.1//EN" "http://www.w3.org/Graphics/SVG/1.1/DTD/svg11.dtd">
<svg version="1.1" id="Layer_1" xmlns="http://www.w3.org/2000/svg" xmlns:xlink="http://www.w3.org/1999/xlink" x="0px" y="0px"
	 width="200.632px" height="170.496px" viewBox="0 0 200.632 170.496" enable-background="new 0 0 200.632 170.496"
	 xml:space="preserve">
<g>
	<path fill="#FFFFFF" d="M-14.033,180.691c0-62.667,0-125.333,0-188c75.334,0,150.666,0,226,0c0,62.667,0,125.333,0,188
		C136.633,180.691,61.301,180.691-14.033,180.691z M49.125,167.699c5.811,2.815,13.283,2.556,16.203-0.666
		c3.85-4.248,6.497-9.027,7.455-14.927c1.707-10.505,4.043-20.907,6.105-31.354c0.661-3.353,2.605-5.373,6.059-5.627
		c3.981-0.292,7.976-0.629,11.962-0.597c9.237,0.073,14.403,4.139,17.49,12.776c1.7,4.758,3.929,9.34,6.12,13.905
		c2.238,4.664,1.475,8.064-3.135,10.435c-5.25,2.7-9.997,6.674-16.561,6.328c-1.234-0.065-3.175,2.069-3.656,3.557
		c-0.248,0.764,1.884,3.207,3.146,3.379c3.562,0.485,7.687,1.277,10.769-0.013c8.254-3.457,16.196-7.734,23.979-12.181
		c1.596-0.912,2.44-3.901,2.8-6.07c1.13-6.819,1.863-13.704,2.795-20.914c1.084,0.321,2.158,0.371,2.889,0.897
		c10.543,7.615,22.931,10.653,35.19,13.649c7.858,1.921,11.748,6.032,12.093,14.008c0.148,3.465,0.836,6.634-4.059,7.485
		c-1.152,0.201-2.391,2.504-2.705,4.023c-0.217,1.049,0.781,3.075,1.762,3.528c6.401,2.959,13.169,0.165,13.928-6.664
		c1.078-9.705,0.873-19.569,0.844-29.364c-0.005-1.306-2.109-2.688-3.378-3.892c-5.656-5.363-11.765-10.322-16.865-16.165
		c-2.259-2.589-2.782-6.865-3.614-10.485c-1.073-4.671-1.143-9.619-2.583-14.148c-2.552-8.029-2.396-10,4.323-14.846
		c7.803-5.626,14.25-12.062,15.568-22.198c0.492-3.78,0.901-7.599,1.788-11.294c3.354-13.98-2.587-24.776-12.003-34.026
		c-9.529-9.361-26.723-7.831-36.027,2.187c-0.842,0.906-1.118,3.334-0.494,4.314c0.578,0.909,2.743,1.188,4.16,1.084
		c1.609-0.118,3.162-0.978,4.744-1.502c10.605-3.516,23.604,2.608,26.242,13.397c2.846,11.637,2.215,23.585-5.154,33.521
		c-9.008,12.148-14.823,13.841-28.643,8.079c-12.105-5.048-24.643-9.238-37.273-12.799c-11.644-3.282-23.426-2.978-34.447,3.225
		c-1.57,0.884-3.385,1.485-5.161,1.825c-6.136,1.172-9.734-2.649-7.666-8.435c1.218-3.404,3.374-6.465,5.017-9.727
		c1.371-2.725,2.611-5.517,3.91-8.278c-0.347-0.377-0.693-0.754-1.04-1.13c-2.082,0.722-4.122,1.624-6.256,2.122
		c-3.019,0.705-6.544,2.327-9.085,1.417c-7.779-2.784-17.18-3.973-18.981-14.834c-0.287-1.73-2.42-3.155-3.7-4.721
		c-1.03,1.935-2.29,3.784-3.045,5.821c-1.784,4.808-2.208,10.615-5.24,14.344c-4.11,5.054-3.773,9.908-2.928,15.34
		c0.281,1.806,0.996,3.566,1.099,5.372c0.462,8.082,0.771,16.173,1.143,24.26c0.212,4.605-0.041,9.303,0.819,13.785
		c0.671,3.495,2.592,6.793,4.212,10.053c3.409,6.86,2.991,9.709-2.581,14.849c-1.959,1.807-4.089,3.444-5.928,5.364
		c-6.681,6.972-13.474,13.856-19.746,21.185c-1.482,1.733-2.387,6.275-1.312,7.418c2.529,2.693,6.113,1.562,8.916-0.858
		c0.627-0.543,1.311-1.097,1.736-1.788c5.807-9.437,14.935-14.19,24.781-18.24c5.477-2.251,10.916-5.012,15.645-8.522
		c3.545-2.63,5.137-1.794,6.135,1.54c1.713,5.726,3.568,11.528,4.192,17.423c0.505,4.766-0.392,9.78-1.365,14.542
		c-0.298,1.456-2.789,3.229-4.48,3.479C52.198,161.921,49.941,163.575,49.125,167.699z"/>
	<path fill-rule="evenodd" clip-rule="evenodd" fill="#919191" d="M49.125,167.699c0.816-4.124,3.073-5.778,6.905-6.347
		c1.691-0.251,4.183-2.023,4.48-3.479c0.974-4.762,1.87-9.776,1.365-14.542c-0.624-5.895-2.479-11.697-4.192-17.423
		c-0.998-3.334-2.59-4.17-6.135-1.54c-4.729,3.511-10.168,6.271-15.645,8.522c-9.847,4.05-18.975,8.804-24.781,18.24
		c-0.426,0.691-1.109,1.245-1.736,1.788c-2.803,2.421-6.387,3.552-8.916,0.858c-1.074-1.143-0.17-5.685,1.312-7.418
		c6.272-7.328,13.065-14.213,19.746-21.185c1.839-1.92,3.969-3.558,5.928-5.364c5.572-5.14,5.99-7.988,2.581-14.849
		c-1.62-3.26-3.541-6.558-4.212-10.053c-0.86-4.482-0.607-9.18-0.819-13.785c-0.372-8.087-0.681-16.178-1.143-24.26
		c-0.103-1.806-0.817-3.566-1.099-5.372c-0.846-5.432-1.183-10.286,2.928-15.34c3.032-3.729,3.456-9.536,5.24-14.344
		c0.755-2.037,2.015-3.887,3.045-5.821c1.28,1.565,3.413,2.99,3.7,4.721c1.802,10.861,11.202,12.05,18.981,14.834
		c2.541,0.91,6.066-0.712,9.085-1.417c2.134-0.498,4.174-1.4,6.256-2.122c0.347,0.376,0.693,0.753,1.04,1.13
		c-1.299,2.762-2.539,5.554-3.91,8.278c-1.643,3.262-3.799,6.322-5.017,9.727c-2.068,5.785,1.53,9.606,7.666,8.435
		c1.776-0.34,3.591-0.941,5.161-1.825c11.021-6.202,22.804-6.507,34.447-3.225c12.631,3.561,25.168,7.751,37.273,12.799
		c13.819,5.762,19.635,4.069,28.643-8.079c7.369-9.937,8-21.885,5.154-33.521c-2.638-10.789-15.637-16.913-26.242-13.397
		c-1.582,0.524-3.135,1.384-4.744,1.502c-1.417,0.104-3.582-0.175-4.16-1.084c-0.624-0.98-0.348-3.408,0.494-4.314
		c9.305-10.018,26.498-11.548,36.027-2.187c9.416,9.25,15.357,20.046,12.003,34.026c-0.887,3.695-1.296,7.514-1.788,11.294
		c-1.318,10.137-7.766,16.572-15.568,22.198c-6.72,4.846-6.875,6.816-4.323,14.846c1.44,4.529,1.51,9.478,2.583,14.148
		c0.832,3.62,1.355,7.896,3.614,10.485c5.101,5.843,11.209,10.802,16.865,16.165c1.269,1.203,3.373,2.586,3.378,3.892
		c0.029,9.795,0.234,19.659-0.844,29.364c-0.759,6.829-7.526,9.623-13.928,6.664c-0.98-0.453-1.979-2.479-1.762-3.528
		c0.314-1.52,1.553-3.822,2.705-4.023c4.895-0.852,4.207-4.021,4.059-7.485c-0.345-7.976-4.234-12.087-12.093-14.008
		c-12.26-2.996-24.647-6.034-35.19-13.649c-0.73-0.526-1.805-0.576-2.889-0.897c-0.932,7.21-1.665,14.095-2.795,20.914
		c-0.359,2.169-1.204,5.158-2.8,6.07c-7.782,4.446-15.725,8.724-23.979,12.181c-3.082,1.29-7.206,0.498-10.769,0.013
		c-1.263-0.172-3.395-2.615-3.146-3.379c0.481-1.487,2.422-3.622,3.656-3.557c6.563,0.346,11.311-3.628,16.561-6.328
		c4.609-2.37,5.373-5.771,3.135-10.435c-2.191-4.565-4.42-9.147-6.12-13.905c-3.087-8.638-8.253-12.703-17.49-12.776
		c-3.986-0.032-7.98,0.305-11.962,0.597c-3.453,0.254-5.397,2.274-6.059,5.627c-2.062,10.446-4.398,20.849-6.105,31.354
		c-0.958,5.899-3.605,10.679-7.455,14.927C62.408,170.255,54.936,170.515,49.125,167.699z"/>
</g>
</svg>
