<?xml version="1.0" encoding="utf-8"?>
<!-- Generator: Adobe Illustrator 16.0.0, SVG Export Plug-In . SVG Version: 6.00 Build 0)  -->
<!DOCTYPE svg PUBLIC "-//W3C//DTD SVG 1.1//EN" "http://www.w3.org/Graphics/SVG/1.1/DTD/svg11.dtd">
<svg version="1.1" id="Layer_1" xmlns="http://www.w3.org/2000/svg" xmlns:xlink="http://www.w3.org/1999/xlink" x="0px" y="0px"
	 width="225.32px" height="148.57px" viewBox="0 0 225.32 148.57" enable-background="new 0 0 225.32 148.57" xml:space="preserve">
<g>
	<path fill="#FFFFFF" d="M-8.221,156.188c0-54.333,0-108.667,0-163c80.333,0,160.666,0,241,0c0,54.333,0,108.667,0,163
		C152.445,156.188,72.113,156.188-8.221,156.188z M153.57,123.185c3.35,5.816,7.023,10.562,8.948,15.933
		c2.649,7.393,7.044,10.446,14.653,9.171c0.486-0.081,0.998-0.004,1.498-0.004c3.596,0.003,7.787,0.979,7.432-5.031
		c-0.041-0.693,1.202-1.451,1.826-2.198c1.219-1.461,2.422-2.937,3.631-4.405c-1.926-1.203-3.816-2.466-5.785-3.592
		c-1.757-1.005-4.709-1.457-5.217-2.85c-2.582-7.106-4.199-14.273-0.002-21.657c3.577-6.292,8.268-11.206,14.414-14.869
		c8.093-4.824,11.863-11.869,10.928-21.335c-0.131-1.323-0.088-2.663-0.137-3.996c-0.361-9.906-0.051-10.33,9.584-13.078
		c9.909-2.825,12.808-10.699,7.016-19.004c-0.471-0.674-1.082-1.441-1.123-2.193c-0.376-6.803-4.533-11.336-9.367-15.299
		c-3.034-2.488-3.235-5.052-1.675-8.314c1.382-2.891,2.544-5.887,3.802-8.836c-0.711-0.542-1.422-1.084-2.133-1.626
		c-2.059,2.564-3.976,5.261-6.215,7.656c-2.145,2.296-4.622,4.279-7.172,6.6c-3.481-7.276-4.777-7.326-9.211-1.871
		c-1.643,2.021-3.951,3.487-5.693,5.441c-4.143,4.65-8.969,8.968-11.969,14.293c-3.866,6.858-8.268,12.862-14.842,17.156
		c-1.342,0.876-3.003,1.725-4.539,1.765c-7.759,0.204-15.561,0.631-23.283,0.074c-27.643-1.993-58.302,27.467-58.348,55.44
		c-0.01,5.98-0.293,11.986-0.923,17.931c-0.521,4.928-3.422,8.896-8.494,9.115c-12.257,0.528-24.655,1.367-36.787,0.091
		c-9.054-0.953-18.284-8.279-16.624-20.554c0.307-2.27-0.205-4.65-0.416-8.317c-1.9,2.078-2.903,2.92-3.594,3.968
		c-9.674,14.686,0.423,35.74,17.943,37.296c6.466,0.573,12.982,0.593,19.449,1.167c15.553,1.38,31.181-2.21,46.706,0.78
		c1.114,0.215,2.324-0.043,3.487-0.12c8.777-0.58,17.548-1.458,26.333-1.638c4.562-0.093,9.219,0.726,13.711,1.693
		c7.604,1.64,11.436-0.711,11.348-6.216c3.645-1.835,8.355-2.651,9.607-5.18c2.231-4.509-3.629-4.512-6.574-6.636
		C148.338,127.711,150.547,125.801,153.57,123.185z"/>
	<path fill-rule="evenodd" clip-rule="evenodd" fill="#919191" d="M153.57,123.185c-3.023,2.616-5.232,4.526-7.805,6.751
		c2.945,2.124,8.806,2.127,6.574,6.636c-1.252,2.528-5.963,3.345-9.607,5.18c0.088,5.505-3.744,7.855-11.348,6.216
		c-4.492-0.968-9.148-1.786-13.711-1.693c-8.785,0.18-17.556,1.058-26.333,1.638c-1.163,0.077-2.374,0.335-3.487,0.12
		c-15.525-2.99-31.153,0.6-46.706-0.78c-6.466-0.574-12.982-0.594-19.449-1.167c-17.52-1.556-27.618-22.61-17.943-37.296
		c0.69-1.048,1.693-1.89,3.594-3.968c0.21,3.667,0.723,6.048,0.416,8.317c-1.661,12.274,7.57,19.601,16.624,20.554
		c12.132,1.276,24.53,0.438,36.787-0.091c5.072-0.219,7.972-4.188,8.494-9.115c0.629-5.944,0.913-11.95,0.923-17.931
		c0.046-27.974,30.705-57.434,58.348-55.44c7.723,0.557,15.524,0.13,23.283-0.074c1.536-0.04,3.197-0.889,4.539-1.765
		c6.574-4.294,10.976-10.298,14.842-17.156c3-5.325,7.826-9.643,11.969-14.293c1.742-1.954,4.051-3.421,5.693-5.441
		c4.434-5.455,5.729-5.405,9.211,1.871c2.55-2.32,5.027-4.304,7.172-6.6c2.239-2.396,4.156-5.092,6.215-7.656
		c0.711,0.542,1.422,1.084,2.133,1.626c-1.258,2.949-2.42,5.945-3.802,8.836c-1.561,3.263-1.359,5.826,1.675,8.314
		c4.834,3.963,8.991,8.496,9.367,15.299c0.041,0.752,0.652,1.52,1.123,2.193c5.792,8.305,2.894,16.179-7.016,19.004
		c-9.635,2.748-9.945,3.172-9.584,13.078c0.049,1.333,0.006,2.673,0.137,3.996c0.936,9.466-2.835,16.511-10.928,21.335
		c-6.146,3.663-10.837,8.577-14.414,14.869c-4.197,7.384-2.58,14.551,0.002,21.657c0.508,1.393,3.46,1.845,5.217,2.85
		c1.969,1.126,3.859,2.389,5.785,3.592c-1.209,1.469-2.412,2.944-3.631,4.405c-0.624,0.747-1.867,1.505-1.826,2.198
		c0.355,6.01-3.836,5.034-7.432,5.031c-0.5,0-1.012-0.077-1.498,0.004c-7.609,1.275-12.004-1.778-14.653-9.171
		C160.594,133.746,156.92,129.001,153.57,123.185z"/>
</g>
</svg>
