<?xml version="1.0" encoding="utf-8"?>
<!-- Generator: Adobe Illustrator 16.0.0, SVG Export Plug-In . SVG Version: 6.00 Build 0)  -->
<!DOCTYPE svg PUBLIC "-//W3C//DTD SVG 1.1//EN" "http://www.w3.org/Graphics/SVG/1.1/DTD/svg11.dtd">
<svg version="1.1" id="Layer_1" xmlns="http://www.w3.org/2000/svg" xmlns:xlink="http://www.w3.org/1999/xlink" x="0px" y="0px"
	 width="135.569px" height="166.773px" viewBox="0 0 135.569 166.773" enable-background="new 0 0 135.569 166.773"
	 xml:space="preserve">
<g>
	<path fill="#FFFFFF" d="M-6.41,176.033c0-61,0-122,0-183c51.333,0,102.666,0,154,0c0,61,0,122,0,183
		C96.256,176.033,44.923,176.033-6.41,176.033z M116.594,154.747c1.936-1.166,3.38-1.945,4.73-2.863
		c13.69-9.308,16.116-16.414,13.085-27.819c-2.333-8.776-4.986-17.481-7.866-26.096c-5.346-15.991-13.324-30.125-25.881-42.037
		c-5.232-4.963-10.18-12.482-7.762-21.433c2.34-8.654,4.799-17.283,6.779-26.021c0.474-2.093-0.748-4.569-1.189-6.869
		c-2.469,0.534-5.409,0.406-7.3,1.753c-3.07,2.186-5.229,5.62-8.208,7.977c-1.899,1.503-4.506,2.457-6.932,2.891
		c-10.043,1.792-18.417-0.724-24.449-9.635c-2.042-3.017-5.546-6.3-9.087-3.581c-1.736,1.333-1.648,6.073-1.159,9.071
		c1.279,7.835,3.085,15.596,4.989,23.311c0.825,3.343,2.562,6.451,3.587,9.759c0.559,1.803,1.36,4.316,0.576,5.624
		c-5.329,8.878-2.872,17.527-0.311,26.491c3.824,13.385,9.704,26.298,10,40.545c0.08,3.86-0.464,7.749-0.188,11.587
		c0.317,4.402,1.228,8.763,1.884,13.161c-7.02,1.983-14.894-0.718-19.874-7.628c-2.893-4.016-5.077-8.578-7.286-13.04
		c-2.139-4.319-3.551-9.021-5.898-13.21C22.895,96.082,7.981,94.812,0,104.791c2.477-0.109,4.537,0.284,6.202-0.354
		c9.544-3.655,17.746,2.579,18.597,13.603c0.096,1.25,0.761,2.518,1.387,3.653c2.459,4.461,5.048,8.852,7.502,13.315
		c0.854,1.553,1.141,3.503,2.229,4.825c5.811,7.059,13.364,11.208,22.308,13.047c1.566,0.322,2.927,1.641,4.383,2.498
		c-1.256,1.016-2.779,1.836-3.703,3.095c-1.24,1.689-2.543,3.667-2.737,5.627c-0.079,0.797,2.771,2.794,4.142,2.667
		c6.006-0.556,11.963-1.666,17.926-2.649c0.59-0.097,1.151-0.639,1.635-1.075c6.316-5.695,15.679-4.732,20.626,1.971
		c0.703,0.954,2.381,1.829,3.512,1.722c4.963-0.475,9.906-1.228,14.818-2.094c1.484-0.262,3.878-1.025,4.037-1.893
		c0.28-1.524-0.492-3.562-1.479-4.904C120.496,156.633,118.729,156.065,116.594,154.747z"/>
	<path fill-rule="evenodd" clip-rule="evenodd" fill="#919191" d="M116.594,154.747c2.136,1.318,3.902,1.886,4.793,3.098
		c0.986,1.342,1.759,3.38,1.479,4.904c-0.159,0.867-2.553,1.631-4.037,1.893c-4.912,0.866-9.855,1.619-14.818,2.094
		c-1.131,0.107-2.809-0.768-3.512-1.722c-4.947-6.703-14.31-7.666-20.626-1.971c-0.483,0.437-1.045,0.979-1.635,1.075
		c-5.963,0.983-11.92,2.094-17.926,2.649c-1.371,0.127-4.221-1.87-4.142-2.667c0.194-1.96,1.497-3.938,2.737-5.627
		c0.924-1.259,2.446-2.079,3.703-3.095c-1.456-0.857-2.817-2.176-4.383-2.498c-8.944-1.839-16.497-5.988-22.308-13.047
		c-1.088-1.322-1.375-3.272-2.229-4.825c-2.455-4.464-5.043-8.854-7.502-13.315c-0.626-1.136-1.291-2.403-1.387-3.653
		c-0.851-11.023-9.052-17.258-18.597-13.603c-1.666,0.638-3.726,0.244-6.202,0.354c7.981-9.979,22.895-8.709,28.835,1.894
		c2.347,4.188,3.759,8.891,5.898,13.21c2.209,4.462,4.393,9.024,7.286,13.04c4.98,6.91,12.854,9.611,19.874,7.628
		c-0.656-4.398-1.567-8.759-1.884-13.161c-0.276-3.838,0.268-7.727,0.188-11.587c-0.297-14.247-6.176-27.16-10-40.545
		c-2.561-8.964-5.018-17.613,0.311-26.491c0.785-1.308-0.017-3.821-0.576-5.624c-1.025-3.308-2.762-6.416-3.587-9.759
		c-1.904-7.715-3.71-15.476-4.989-23.311c-0.49-2.998-0.577-7.738,1.159-9.071c3.541-2.719,7.045,0.564,9.087,3.581
		c6.032,8.911,14.406,11.427,24.449,9.635c2.426-0.434,5.032-1.388,6.932-2.891c2.979-2.356,5.138-5.791,8.208-7.977
		c1.891-1.347,4.831-1.219,7.3-1.753c0.441,2.3,1.663,4.776,1.189,6.869c-1.98,8.737-4.439,17.366-6.779,26.021
		c-2.418,8.95,2.529,16.47,7.762,21.433c12.557,11.912,20.535,26.046,25.881,42.037c2.88,8.614,5.533,17.319,7.866,26.096
		c3.031,11.405,0.605,18.512-13.085,27.819C119.974,152.802,118.529,153.581,116.594,154.747z"/>
</g>
</svg>
